<svg width="48" height="48" viewBox="0 0 48 48" fill="none" xmlns="http://www.w3.org/2000/svg">
<g filter="url(#filter0_d_6096_2628)">
<rect x="6" y="2" width="36" height="36" rx="3" fill="#FFE66D" stroke="black" stroke-width="4"/>
<path d="M34.2839 10.772C35.3239 10.4004 36.4687 10.9429 36.8405 11.983C37.212 13.0229 36.6704 14.1678 35.6305 14.5396C28.52 17.0812 24.8071 23.8588 22.8102 28.3883C22.4803 29.136 21.7287 29.6077 20.9118 29.5797C20.0948 29.5516 19.377 29.0292 19.0993 28.2603C18.5942 26.8621 17.6353 25.7152 16.5651 24.8336C15.4875 23.9459 14.3983 23.4108 13.8122 23.2066C12.7691 22.8434 12.2175 21.7038 12.5807 20.6607C12.9439 19.6177 14.0836 19.0664 15.1266 19.4293C16.1605 19.7893 17.6666 20.5583 19.109 21.7467C19.6787 22.216 20.2536 22.7641 20.7917 23.3931C23.2339 18.856 27.3638 13.2456 34.2839 10.772Z" fill="black"/>
</g>
<defs>
<filter id="filter0_d_6096_2628" x="0" y="0" width="48" height="48" filterUnits="userSpaceOnUse" color-interpolation-filters="sRGB">
<feFlood flood-opacity="0" result="BackgroundImageFix"/>
<feColorMatrix in="SourceAlpha" type="matrix" values="0 0 0 0 0 0 0 0 0 0 0 0 0 0 0 0 0 0 127 0" result="hardAlpha"/>
<feOffset dy="4"/>
<feGaussianBlur stdDeviation="2"/>
<feComposite in2="hardAlpha" operator="out"/>
<feColorMatrix type="matrix" values="0 0 0 0 0 0 0 0 0 0 0 0 0 0 0 0 0 0 0.25 0"/>
<feBlend mode="normal" in2="BackgroundImageFix" result="effect1_dropShadow_6096_2628"/>
<feBlend mode="normal" in="SourceGraphic" in2="effect1_dropShadow_6096_2628" result="shape"/>
</filter>
</defs>
</svg>